<svg xmlns="http://www.w3.org/2000/svg" width="1024" height="1024" viewBox="0 0 1024 1024">
<defs>
</defs>
<path d="M 215.02 215.02 A 420.00 420.00 0 0 1 808.98 215.02 L 635.02 388.98 A 173.97 173.97 0 0 0 388.98 388.98 Z" fill="#E0E0E0"/><path d="M 808.98 215.02 A 420.00 420.00 0 0 1 808.98 808.98 L 635.02 635.02 A 173.97 173.97 0 0 0 635.02 388.98 Z" fill="#0a0a0a"/><path d="M 808.98 808.98 A 420.00 420.00 0 0 1 215.02 808.98 L 388.98 635.02 A 173.97 173.97 0 0 0 635.02 635.02 Z" fill="#E0E0E0"/><path d="M 215.02 808.98 A 420.00 420.00 0 0 1 215.02 215.02 L 388.98 388.98 A 173.97 173.97 0 0 0 388.98 635.02 Z" fill="#0a0a0a"/>
</svg>
